<?xml version="1.0" encoding="UTF-8"?>
<svg id="Warstwa_1" xmlns="http://www.w3.org/2000/svg" version="1.1" viewBox="0 0 104.514 21.982">
  <!-- Generator: Adobe Illustrator 30.1.0, SVG Export Plug-In . SVG Version: 2.1.1 Build 136)  -->
  <path d="M8.793,19.856c.931,0,1.791-.12,2.556-.356.759-.234,1.419-.578,1.963-1.022.541-.44.968-.992,1.271-1.642.303-.651.457-1.406.457-2.245v-.051c0-.74-.118-1.383-.349-1.909-.23-.524-.578-.987-1.033-1.377-.461-.396-1.038-.741-1.715-1.026-.686-.288-1.48-.552-2.359-.784-.749-.199-1.384-.378-1.888-.531-.51-.155-.919-.322-1.216-.497-.318-.186-.543-.403-.669-.646-.124-.237-.186-.517-.186-.834v-.05c0-.498.216-.919.643-1.251.412-.32,1.024-.482,1.821-.482.777,0,1.565.161,2.341.48.711.292,1.447.689,2.189,1.181l1.797-2.606c-.848-.65-1.783-1.16-2.781-1.516-1.056-.377-2.232-.568-3.496-.568-.881,0-1.697.124-2.425.367-.724.242-1.355.594-1.875,1.045-.518.449-.926.99-1.214,1.608-.286.616-.431,1.322-.431,2.094v.051c0,.84.134,1.548.397,2.106.264.557.639,1.029,1.117,1.401.486.38,1.088.705,1.79.965.715.266,1.524.509,2.402.723.748.187,1.362.367,1.825.535.474.172.852.348,1.125.523.291.187.493.397.602.622.105.221.158.474.158.754v.05c0,.589-.254,1.055-.756,1.387-.475.314-1.143.474-1.985.474-1.032,0-1.995-.201-2.864-.597-.805-.366-1.602-.859-2.37-1.465l-2.044,2.448c.997.872,2.111,1.531,3.316,1.961,1.266.452,2.573.681,3.886.681Z" fill="#2c2c2c"/>
  <polygon points="39.748 16.489 39.748 2.39 36.221 2.39 36.221 19.591 48.613 19.591 47.389 16.489 39.748 16.489" fill="#2c2c2c"/>
  <rect x="64.844" y="2.39" width="3.526" height="17.201" fill="#2c2c2c"/>
  <path d="M25.285,2.133c-4.892,0-8.858,3.966-8.858,8.858s3.966,8.858,8.858,8.858,8.858-3.966,8.858-8.858-3.966-8.858-8.858-8.858ZM25.285,16.463c-3.022,0-5.472-2.45-5.472-5.472s2.45-5.472,5.472-5.472,5.472,2.45,5.472,5.472-2.45,5.472-5.472,5.472Z" fill="#2c2c2c"/>
  <path d="M71.125,13.469h5.098l3.999,6.122h4.028l-4.476-6.437.255-.074c2.35-.69,3.541-2.418,3.541-5.137,0-3.684-2.171-5.553-6.454-5.553h-5.991v3.102h5.832c2.041,0,3.034.802,3.034,2.451,0,1.632-.992,2.424-3.034,2.424h-5.832v3.102Z" fill="#d8b568"/>
  <path d="M94.064,2.133c-4.892,0-8.858,3.966-8.858,8.858s3.966,8.858,8.858,8.858,8.858-3.966,8.858-8.858-3.966-8.858-8.858-8.858ZM94.064,16.463c-3.022,0-5.472-2.45-5.472-5.472s2.45-5.472,5.472-5.472,5.472,2.45,5.472,5.472-2.45,5.472-5.472,5.472Z" fill="#d8b568"/>
  <polygon points="58.903 2.39 54.074 15.364 49.22 2.39 45.435 2.39 52.222 19.591 55.795 19.591 62.582 2.39 58.903 2.39" fill="#2c2c2c"/>
</svg>